<?xml version="1.0" standalone="no"?>
<!DOCTYPE svg PUBLIC "-//W3C//DTD SVG 1.1//EN" "http://www.w3.org/Graphics/SVG/1.1/DTD/svg11.dtd" >
<svg xmlns="http://www.w3.org/2000/svg">
<metadata>Generated by IcoMoon</metadata>
<defs>
<font id="icomoon" horiz-adv-x="1024">
<font-face units-per-em="1024" ascent="960" descent="-64" />
<missing-glyph horiz-adv-x="1024" />
<glyph unicode="&#x20;" d="" horiz-adv-x="512" />
<glyph unicode="&#xe600;" d="M1357.74 489.756c-24.604 0-50.844-10.552-72.008-29.028-2.788-2.39-5.092-5.19-7.552-8.12-1.194-1.422-2.432-2.958-3.854-4.508l-2.432-2.758 2.29-2.9c9.144-11.434 22.712-11.648 33.636-11.804 14.266-0.228 18.902-1.196 19.3-11.42 0.796-19.47-22.4-30.548-44.188-39.396-20.75-8.504-33.722-19-38.472-31.332-3.428-8.832-2.716-18.518 2.176-28.73 5.504-11.592 13.866-17.48 24.888-17.48 9.814 0 19.968 4.508 29.768 8.904 3.556 1.522 6.97 3.058 10.298 4.308 31.516 11.692 56.404 31.802 73.97 59.706 3.812 6.158 9.046 12.26 14.066 18.19 17.436 20.594 37.204 43.932 7.636 76.146-12.116 13.212-29.228 20.224-49.522 20.224zM721.778 422.826c-4.934 0-10.198-0.498-15.288-0.98-10.24-1.024-21.076-1.578-28.486 0.428l-0.826 0.256-0.868-0.086c-5.76-0.698-11.648-1.28-17.678-1.864-14.094-1.336-28.672-2.73-43.108-5.688l-1.082-0.256c-17.564-3.64-34.148-7.082-41.486-20.14-5.234-9.33-4.664-22.372 1.664-39.866 9.244-25.644-7.964-50.39-24.576-74.368-2.788-4.038-5.59-8.036-8.192-11.99-10.582-16.058-24.448-30.52-36.678-43.236-49.862-51.924-49.862-54.798-1.068-103.764l3.258-3.27c21.816-21.802 44.402-44.416 61.952-70.812 10.538-15.802 23.424-29.226 37.318-38.812 11.15-7.808 24.15-11.492 39.794-11.492 12.472 0 25.044 2.276 37.234 4.466l2.376 0.442c5.688 1.010 10.368 8.634 11.236 10.182 2.66 4.466 3.5 8.15 2.546 10.966-9.244 26.268-33.606 33.35-55.082 39.624l-1.124 0.298c-36.324 10.61-61.084 39.894-67.954 80.256-7.452 44.004 28.374 76.8 50.39 92.5 41.728 29.668 73.288 61.554 96.568 97.38 2.73 4.268 5.888 8.576 9.116 12.956 13.496 18.546 28.786 39.524 18.76 61.056-6.514 14.208-19.514 15.816-28.716 15.816zM1743.090 856.604c-5.318 1.408-10.326 2.772-14.508 4.58-31.716 13.782-64.498 28.060-92.658 54.386-29.824 27.932-70.912 43.32-115.782 43.32-32.626 0-64.114-8.262-91.022-23.922-151.196-87.836-301.184-169.43-474.056-202.596-39.154-7.48-79.474-7.51-118.514-7.566-38.286-0.014-77.908-0.072-116.936-7.040-16.812-3.016-34.12-5.476-50.93-7.88-32.812-4.652-66.746-9.472-98.83-18.66-24.974-7.126-47.246-10.596-67.996-10.596-30.278 0-57.998 7.41-84.822 22.642l-1.166 0.682c-6.556 3.74-14.678 8.362-22.74 8.362-7.978 0-14.278-4.408-18.618-13.084-9.572-19 5.134-26.638 14.892-31.702 2.502-1.294 5.020-2.56 7.096-4.012 29.382-20.494 45.284-31.572 47.204-42.866 1.906-10.924-7.992-25.444-28.828-54.726-19.996-28.090-31.858-59.876-43.308-90.624l-3.712-9.94c-44.658-118.372-112.698-194.474-208.056-232.532-22.4-9.004-29.228-25.528-35.784-41.5-3.1-7.552-6.002-14.706-10.566-20.948l-3.37-4.664c-27.308-37.702-55.538-76.744-78.464-117.972-12.004-21.646-14.15-44.558-5.958-64.384 8.69-21.178 27.932-37.106 54.172-44.772 6.344-1.85 13.070-3.67 19.584-3.67 7.808 0 14.364 2.674 19.514 7.95 4.466 4.608 6.698 9.97 6.514 15.942-0.27 11.492-9.132 20.692-11.846 23.254-43.876 41.102-19.84 68.438 10.566 103.026l4.85 5.604c45.796 52.508 106.368 85.22 165.020 116.934 7.638 4.11 15.302 8.25 22.926 12.416 91.080 49.836 171.704 97.222 236.074 173.668 34.86 41.316 83.77 46.664 122.482 46.664 18.888 0 38.428-1.452 57.33-2.802 9.714-0.682 19.384-1.408 28.956-1.92 48.172-2.588 95.446-14.408 141.184-25.884 20.722-5.134 42.154-10.552 63.404-14.99 22.784-4.85 33.792-3.514 39.624 4.124 5.946 7.736 4.11 20.65-0.47 37.632-10.198 37.588-3.256 63.36 21.86 79.916-19.028-35.954-11.192-70.912-2.93-107.648l2.604-11.634c3.756-17.266 7.652-34.546 11.576-51.784 17.508-76.6 35.584-155.762 36.48-236.486 0.556-54.784 33.394-96.98 65.108-137.87 7.766-9.928 19.214-14.99 34.062-14.99 2.73 0 5.504 0.142 8.262 0.47 3.626 0.498 7.722-0.058 11.79-0.47 3.372-0.384 6.756-0.754 9.998-0.754 4.494 0 18.118 0 22.272 17.052 3.428 14.25-6.428 27.818-26.396 36.338-26.694 11.308-41.132 32.242-45.426 65.836-11.59 89.586-21.22 177.266-12.032 265.5 4.964 47.502 28.060 77.754 74.796 97.948 81.606 35.328 135.936 96.072 161.394 180.564 7.196 23.908 22.144 42.88 45.696 57.942 60.26 38.514 131.372 79.658 213.86 79.658 10.964 0 22.102-0.74 33.096-2.148 16.156-2.076 33.778-0.712 48.682 3.642 33.606 9.842 55.012 31.858 58.796 60.274 3.684 28.118-18.304 33.978-35.996 38.714zM1506.532 888.036c-4.338-42.568-10.268-100.878-40.732-131.57-5.334-5.376-11.336-8.106-17.836-8.106-11.72 0-24.448 8.86-35.854 24.902-15.174 21.362-22.826 48.3-17.836 62.62 0.512 1.478 2.346 1.892 3.328 1.892 1.138 0 1.722-0.498 2.020-0.91 0.37-0.498 0.47-1.196 0.242-1.806-7.468-21.462 6.556-47.788 22.77-63.218 8.662-8.236 18.802-16.668 28.26-16.668 6.214 0 11.59 3.584 16.47 10.964 5.518 8.364 10.012 17.92 13.78 29.17 9.756 29.14 16.37 61.496 20.238 98.916 0.172 1.508 1.836 2.332 3.342 2.332 1.010 0 1.594-0.412 1.906-0.754 0.398-0.442 0.584-1.010 0.526-1.608l-0.626-6.158zM1568.968 882.76c-0.2-0.044-0.384-0.044-0.596-0.044-4.652 0-12.572 8.974-14.52 14.164-1.18 3.1-0.34 4.692 0.568 5.462l0.568 0.484 0.724-0.114c0.156-0.014 15.346-2.616 23.224-2.616 1.238 0 2.232 0.070 2.944 0.212 2.376 0.398 3.186-0.826 3.286-1.962 0.314-4.154-12.26-14.932-16.2-15.588zM1768.25 821.902c-1.166-0.768-7.040-4.48-11.066-3.854-0.398 0.058-0.768 0.17-1.124 0.298-3.924 1.82-5.006 10.668-4.366 14.89 0.596 3.868 2.574 4.722 3.726 4.864l0.612 0.086 0.854-0.342c8.562-6.344 12.742-10.808 12.7-13.44-0.014-1.024-0.512-1.934-1.336-2.502zM2341.718 426.112c44.202 23.524 109.1 76.188 109.1 148.608 0 98.744-91.222 174.948-202.198 174.948h-219.136c-10.354 0-17.876-8.462-17.876-17.878v-622.62c0-9.388 7.538-17.862 17.876-17.862h233.23c111.914 0 205.042 76.16 205.042 181.532 0 86.528-76.202 132.594-126.036 153.274zM2158.336 614.23h73.358c35.74 0 65.836-26.34 65.836-63.942 0-37.632-30.108-67.74-65.836-67.74h-73.358v131.684zM2243.912 225.792h-85.588v134.5h76.174c36.694 0 77.142-28.202 77.142-65.82 0.014-38.586-31.048-68.678-67.726-68.678zM3138.332 546.49c0 111.942-92.188 203.178-205.028 203.178h-281.216c-10.354 0-17.836-8.462-17.836-17.878v-622.62c0-9.388 7.482-17.862 17.836-17.862h111.944c9.388 0 17.862 8.476 17.862 17.864v239.828h64.882l125.084-249.216c1.862-3.77 7.524-8.476 15.062-8.476h125.084c16 0 22.586 15.062 16 27.278l-128.868 238.89c81.806 32.896 139.194 102.5 139.194 189.014zM2921.088 468.452h-139.194v146.716h139.194c38.556 0 71.468-31.986 71.468-71.466 0-39.524-32.91-75.25-71.468-75.25zM3557.774 749.668h-229.476c-9.414 0-16.924-8.462-16.924-17.878v-622.62c0-9.386 7.51-17.864 16.924-17.864h229.476c181.532 0 330.112 147.668 330.112 330.126 0 180.55-148.58 328.236-330.112 328.236zM3548.388 230.5h-90.312v380.9h90.312c106.268 0 183.396-83.712 183.396-189.966 0-107.222-77.126-190.932-183.396-190.932zM4296.050 749.668h-229.476c-9.414 0-16.924-8.462-16.924-17.878v-622.62c0-9.386 7.51-17.864 16.924-17.864h229.476c181.546 0 330.14 147.668 330.14 330.126 0 180.55-148.594 328.236-330.14 328.236zM4286.662 230.5h-90.31v380.9h90.31c106.284 0 183.396-83.712 183.396-189.966 0-107.222-77.114-190.932-183.396-190.932zM5318.386 412.032c0 9.4-7.51 17.862-16.94 17.862h-189.028c-10.34 0-17.878-7.51-17.878-17.864v-93.126c0-9.414 7.538-16.896 17.878-16.896h59.25v-54.556c-28.216-11.278-56.448-15.076-83.698-15.076-102.528 0-186.226 84.65-186.226 187.15 0 103.452 82.744 189.98 185.274 189.98 46.052 0 87.424-12.216 123.18-45.128 7.51-5.646 17.878-5.646 25.386 0.924l74.324 79.004c7.51 7.51 6.586 18.816-1.892 25.4-63.944 55.48-150.5 88.39-229.49 88.39-187.15 0-337.622-150.472-337.622-338.588 0-188.104 150.472-336.698 337.622-336.698 136.364 0 233.23 61.14 233.23 61.14 3.784 2.816 7.524 10.368 7.524 15.048l-0.896 253.028z" horiz-adv-x="5334" />
<glyph unicode="&#xe601;" d="M2223.104 383.302h-2142.208c-41.714 0-75.576-33.92-75.576-75.548v-296.134c0-41.714 33.878-75.62 75.576-75.62h2142.194c41.728 0 75.576 33.906 75.576 75.576v296.178c0.014 41.628-33.862 75.548-75.564 75.548zM2248.306 11.576c0-13.696-11.548-25.188-25.188-25.188h-2142.222c-13.654 0-25.202 11.52-25.202 25.188v296.178c0 13.866 11.35 25.174 25.202 25.174h58.268v-81.92h50.432v81.92h45.696v-81.92h50.374v81.92h48.838v-159.062h50.404v159.034h45.696v-85.048h50.404v85.048h47.246v-85.048h50.404v85.048h44.102v-160.654h50.404v160.654h44.146v-85.048h50.376v85.048h40.96v-85.048h50.418v85.048h40.904v-157.496h50.432v157.498h50.418v-82.958h50.374v82.958h47.246v-81.906h50.432v81.906h49.324v-156.402h50.418v156.402h45.17v-81.322h50.418v81.322h47.232v-81.322h50.432v81.322h47.246v-158.264h50.362v158.264h46.222v-84.494h50.432v84.494h45.156v-83.5h50.404v83.5h53.518v-158.264h50.446v158.264h55.694v-87.652h50.362v87.652h45.184v-86.656h50.362v86.656h53.632v-158.264h50.36v158.264h81.92c13.868 0 25.202-11.322 25.202-25.158v-296.164h-0.056zM518.4 558.82l1269.432 0.596c59.108 0 114.66 20.58 156.218 57.756 42.894 37.702 66.546 88.448 66.546 142.778 0 110.322-99.94 200.050-222.762 200.050h-163.84v-0.654l-1103.204-0.554-360.718-190.948 358.33-207.886v-1.138zM503.652 834.574l-33.976-33.934-0.058 0.058-37.802-36.736 35.584-36.764 0.1 0.084 1.934-2.104-0.142-0.128 2.674-2.674 16.37-18.004 0.868 0.782 14.392-14.364-40.504-40.462-79.346 46.038v132.82l81.92 43.364 37.988-37.972zM574.876 690.802l-64.668 64.596-6.372 7.012 1.478 1.45-0.556 0.582 70.144 70.158-62.62 62.606 22.172 11.734h892.23v-299.732h-892.73l-25.772 14.948 66.688 66.644zM1477.106 908.956h46.222v-299.734h-46.222v299.734zM1960.164 759.95c0-39.652-17.536-76.9-49.578-105.074-32.442-29.042-76.032-45.042-122.752-45.042h-113.452v299.122h8.52v0.64h104.932c95.032 0 172.33-67.144 172.33-149.646zM1624.008 609.222h-50.248v299.734h50.248v-299.734zM333.34 802.502v-76.884l-69.306 40.206 69.306 36.678z" horiz-adv-x="2304" />
<glyph unicode="&#xe602;" d="M1213.596 960h-1139.384c-40.064 0-72.604-32.456-72.604-72.364v-680.278c0-39.894 32.554-72.334 72.604-72.334h384.654v-65.308l-107.648-107.308c-4.196-4.252-5.148-10.368-2.944-15.474 1.55-6.272 7.026-10.966 13.782-10.966h546.716c6.614 0 12.004 4.438 13.724 10.51 2.83 5.39 2.232 12.004-2.304 16.526l-107.548 107.336v64.654h400.94c39.992 0 72.562 32.428 72.562 72.334v680.306c0 39.908-32.568 72.364-72.548 72.364zM878.38-35.058h-484.692l88.050 87.794c1.522 1.536 2.532 3.314 3.228 5.262 0.882 1.864 1.522 3.854 1.522 6.086v70.94h298.468v-70.316c0-2.204 0.582-4.268 1.564-6.116 0.654-1.876 1.664-3.712 3.186-5.234l88.676-88.42zM1257.144 207.36c0-23.95-19.57-43.42-43.548-43.42h-1139.384c-24.036 0-43.548 19.47-43.548 43.42v680.278c0 23.936 19.514 43.406 43.548 43.406h1139.372c23.992 0 43.548-19.47 43.548-43.406l0.014-680.278zM80.242 301.482h1124.85v547.556h-1124.85v-547.556zM109.284 820.082h1066.824v-489.67h-1066.824v489.672zM650.568 889.244c0-6.346-5.144-11.492-11.492-11.492s-11.492 5.144-11.492 11.492c0 6.346 5.144 11.492 11.492 11.492 6.346 0 11.492-5.144 11.492-11.492zM639.218 273.366c-22.3 0-40.42-18.106-40.42-40.364 0-22.272 18.12-40.278 40.42-40.278 22.272 0 40.39 18.004 40.39 40.278 0 22.216-18.12 40.364-40.39 40.364zM2112.384 773.674h-511.388c-40.718 0-73.828-33.038-73.828-73.67v-690.36c0-40.576 33.108-73.644 73.828-73.644h511.388c40.746 0 73.814 33.068 73.814 73.644v690.36c0.028 40.634-33.052 73.67-73.814 73.67zM2160.298 9.644c0-26.312-21.518-47.744-47.914-47.744h-511.388c-26.382 0-47.858 21.462-47.858 47.744v690.36c0 26.312 21.476 47.744 47.858 47.744h511.388c26.396 0 47.914-21.432 47.914-47.744v-690.36zM1587.328 100.836h542.25v571.776h-542.25v-571.776zM1611.862 648.748h493.14v-524.116h-493.142v524.116zM1859.384 708.878c7.894 0 14.364 6.414 14.364 14.252 0 7.822-6.472 14.208-14.364 14.208-7.922 0-14.308-6.372-14.308-14.208 0-7.85 6.4-14.252 14.308-14.252zM1856.91 59.606c-20.11 0-36.494-16.312-36.494-36.438 0-20.154 16.384-36.508 36.494-36.508s36.436 16.356 36.436 36.508c0.014 20.124-16.314 36.438-36.436 36.438zM1856.91 9.7c-7.382 0-13.384 6.058-13.384 13.482 0 7.352 6.030 13.37 13.384 13.37 7.31 0 13.284-6.030 13.284-13.37 0-7.438-5.972-13.482-13.284-13.482zM2747.86 584.562h-254.080c-36.664 0-66.532-29.782-66.532-66.36v-515.84c0-36.594 29.868-66.36 66.532-66.36h254.080c36.722 0 66.532 29.768 66.532 66.36v515.84c0 36.566-29.81 66.36-66.532 66.36zM2788.026 2.36c0-22.072-18.034-40.050-40.164-40.050h-254.080c-22.144 0-40.164 18.004-40.164 40.050v515.84c0 22.072 18.048 40.050 40.164 40.050h254.080c22.144 0 40.164-17.976 40.164-40.050v-515.84zM2477.284 92.116h286.222v376.15h-286.222v-376.15zM2502.386 442.994h235.948v-325.604h-235.948v325.604zM2622.394 498.276c8.776 0 15.972 7.14 15.972 15.928 0 8.732-7.196 15.858-15.972 15.858-8.804 0-15.944-7.126-15.944-15.858 0-8.788 7.14-15.928 15.944-15.928zM2623.388 66.034c-24.362 0-44.16-19.826-44.16-44.146 0-24.348 19.826-44.102 44.16-44.102 24.392 0 44.188 19.754 44.188 44.102 0 24.32-19.798 44.146-44.188 44.146zM2623.388-4.466c-14.548 0-26.382 11.832-26.382 26.368s11.834 26.368 26.382 26.368 26.412-11.832 26.412-26.368-11.86-26.368-26.412-26.368z" horiz-adv-x="2816" />
<glyph unicode="&#xe603;" d="M1382.386 94.308h-461.524v486.472h461.524v-486.472zM951.894 125.326h399.474v424.42h-399.474v-424.42zM128.128 531.598h537.856c12.472 0 22.6 10.112 22.6 22.614 0 12.472-10.126 22.572-22.6 22.572h-537.856c-12.472 0-22.642-10.098-22.642-22.572 0-12.488 10.156-22.614 22.642-22.614zM131.67 424.504h251.092c12.474 0 22.598 10.14 22.598 22.628 0 12.474-10.126 22.598-22.598 22.598h-251.092c-12.46 0-22.612-10.126-22.612-22.598 0-12.486 10.156-22.628 22.612-22.628zM131.698 315.022h251.066c12.516 0 22.628 10.112 22.628 22.628 0 12.486-10.112 22.572-22.628 22.572h-251.064c-12.472 0-22.6-10.084-22.6-22.572 0-12.516 10.112-22.628 22.6-22.628zM670.692 245.39h-537.884c-12.472 0-22.6-10.126-22.6-22.6 0-12.486 10.126-22.642 22.6-22.642h537.87c12.472 0 22.612 10.154 22.612 22.642 0.014 12.472-10.126 22.6-22.6 22.6zM670.692 134.144h-537.798c-12.516 0-22.628-10.14-22.628-22.614 0-12.516 10.112-22.572 22.628-22.572h537.798c12.516 0 22.67 10.054 22.67 22.572 0 12.472-10.154 22.614-22.67 22.614zM1413.276 960h-1318.998c-51.982 0-94.278-42.268-94.278-94.25v-835.528c0-51.968 42.296-94.222 94.278-94.222h1318.998c51.968 0 94.278 42.254 94.278 94.222v835.528c0 51.982-42.31 94.25-94.278 94.25zM379.662 842.496c0-19.854-16.156-36.038-36.012-36.038-19.868 0-36.052 16.17-36.052 36.038 0 19.854 16.17 36.024 36.052 36.024 19.868 0 36.012-16.17 36.012-36.024zM278.726 843.022c0-19.868-16.156-36.024-35.996-36.024-19.868 0-36.040 16.156-36.040 36.024 0 19.854 16.156 36.038 36.038 36.038 19.84 0 35.996-16.172 35.996-36.038zM142.35 877.98c19.854 0 36.010-16.156 36.010-36.038 0-19.854-16.156-36.010-36.010-36.010-19.868 0-36.052 16.156-36.052 36.010 0 19.882 16.17 36.038 36.052 36.038zM1476.522 30.222c0-34.816-28.358-63.188-63.246-63.188h-1318.998c-34.888 0-63.246 28.374-63.246 63.188v697.998h1445.49v-697.998z" horiz-adv-x="1508" />
<glyph unicode="&#xe604;" d="M1173.604-64h-1166.762v586.368h50.246v-536.12h1066.268v662.756h-781.838v50.262h832.086zM1147.962 739.912h-861.24l-8.292 11.136-147.314 179.626 13.084 29.212 16.426 0.114h1012.466l0.498-25.614v-193.976l-25.628-0.498zM311.252 790.188h812.116v119.566h-910.164l98.048-119.566zM31.972 542.094h1096.106v-50.248h-1096.106v50.248zM1013.106 691.902l35.54-35.54-163.428-163.428-35.54 35.54 163.428 163.43zM838.85 691.904l35.54-35.54-163.448-163.45-35.54 35.54 163.45 163.45zM675.37 691.88l35.534-35.544-163.452-163.406-35.534 35.544 163.452 163.406zM500.314 691.88l35.536-35.544-163.462-163.416-35.534 35.544 163.462 163.416zM899.206 949.38l163.438-163.438-35.52-35.52-163.438 163.438 35.52 35.52zM724.894 949.342l163.45-163.448-35.53-35.53-163.45 163.448 35.53 35.53zM561.446 949.35l163.448-163.45-35.54-35.54-163.45 163.448 35.54 35.54zM386.392 949.36l163.44-163.438-35.54-35.54-163.438 163.438 35.54 35.54zM113.778 410.212h895.004v-50.232h-895.004v50.232zM113.778 284.6h279.48v-50.246h-279.48v50.246zM113.778 152.66h279.48v-50.232h-279.48v50.232zM31.972 959.858h168.704v-50.246h-168.704v50.246zM6.842 959.744h50.246v-480.454h-50.246v480.454zM31.972 699.264h322.674v-50.262h-322.674v50.262zM281.492 782.824l35.536-35.526-90.938-90.964-35.534 35.524 90.938 90.964zM339.010 691.874l35.52-35.54-163.474-163.382-35.52 35.54 163.476 163.382zM171.86 798.024c0-20.864-16.824-37.676-37.676-37.676-20.864 0-37.688 16.826-37.688 37.676s16.826 37.674 37.688 37.674c20.85 0.014 37.676-16.824 37.676-37.674z" horiz-adv-x="1180" />
<glyph unicode="&#xe605;" d="M380.060 200.448c-209.38 0-379.734 170.382-379.734 379.79s170.354 379.762 379.734 379.762c209.45 0 379.82-170.368 379.82-379.762s-170.382-379.79-379.82-379.79zM380.060 920.746c-187.734 0-340.48-152.746-340.48-340.508s152.748-340.538 340.48-340.538c187.79 0 340.564 152.774 340.564 340.538s-152.774 340.508-340.564 340.508zM381.212 307.144c-152.504 0-276.536 124.060-276.536 276.58 0 152.506 124.046 276.552 276.536 276.552 152.534 0 276.608-124.046 276.608-276.552 0-152.532-124.088-276.58-276.608-276.58zM381.212 821.020c-130.844 0-237.298-106.452-237.298-237.298 0-130.844 106.438-237.326 237.298-237.326 130.886 0 237.356 106.482 237.356 237.326s-106.468 237.298-237.356 237.298zM910.322-64c-26.226 0-50.816 10.14-69.276 28.586l-292.166 291.884 27.762 27.748 292.154-291.854c11.022-11.022 25.77-17.11 41.528-17.11 0.028 0 0.058 0 0.072 0 15.788 0.028 30.534 6.144 41.586 17.222l15.288 15.332c22.912 23.026 22.912 60.472-0.028 83.47l-291.116 291.726 27.804 27.72 291.086-291.754c38.214-38.244 38.23-100.552 0.058-138.894l-15.302-15.332c-18.446-18.504-43.036-28.73-69.304-28.744-0.072 0-0.1 0-0.142 0zM938.13 126.258l27.746-27.746-107.264-107.264-27.746 27.746 107.264 107.264zM869.404 192.288l27.764-27.748-107.244-107.302-27.764 27.748 107.244 107.302zM367.204 773.562l2.176-47.986-3.428-0.156c-80.256-3.598-142.236-71.794-138.668-151.636l0.070-1.536-42.966-1.934c-0.442 1.124-0.526 2.644-0.598 3.826-2.304 52.608 17.052 101.178 50.062 137.302 32.996 36.096 79.63 59.718 132.224 62.066l1.124 0.058z" />
<glyph unicode="&#xe606;" d="M369.366 853.988h773.134v-43.222h-773.134v43.222zM376.646 474.112h773.134v-43.208h-773.134v43.206zM380.332 85.22h765.74v-43.222h-765.74v43.222zM26.054 747.962h211.854v-43.222h-211.854v43.222zM259.526 704.74h-257.322v255.26h257.322v-255.26zM45.426 747.962h170.88v168.832h-170.88v-168.832zM259.526 324.878h-257.322v255.246h257.322v-255.246zM45.426 368.086h170.88v168.832h-170.88v-168.832zM260.666-64h-257.322v255.188h257.322v-255.188zM46.564-20.794h170.88v168.774h-170.88v-168.774z" horiz-adv-x="1152" />
<glyph unicode="&#xe607;" d="M1013.318 739.598c-7.424 3.286-13.114 2.93-18.9-2.062l-175.318-157.996-167.026 171.592 157.752 179.384c4.808 5.574 5.418 11.078 1.948 18.83-3.356 7.566-8.192 10.652-16.698 10.652h-8.206c-157.014 0-261.548-24.932-310.726-74.098l-14.35-14.364c-34.63-35.926-56.22-81.466-63.986-135.154-7.822-54.074-1.92-104.506 17.536-149.874l3.456-8.078-383.572-391.95c-23.736-23.722-35.228-51.54-35.228-85.164 0-33.48 11.406-60.544 34.872-82.774l45.596-47.644c23.424-23.424 50.916-34.9 83.84-34.9 32.754 0 59.506 11.42 81.764 34.874l392.86 394.952 8.648-4.778c37.476-20.708 78.138-31.188 120.832-31.188 65.736 0 122.624 24.206 169.044 71.936l14.492 14.492c47.814 47.786 72.050 150.94 72.050 306.588 0 8.506-3.086 13.356-10.682 16.726zM986.652 650.198c-7.14-105.358-27.108-173.796-61.056-209.236l-12.5-12.516c-39.324-39.296-87.992-59.236-144.682-59.236-33.082 0-62.38 5.192-87.054 15.36-17.92 7.182-34.616 16.952-49.678 29.1l-411.904-413.924c-16.186-16.184-35.2-24.39-56.49-24.39-21.588 0-40.050 8.362-54.884 24.876l-46.492 44.43c-15.176 16.768-22.514 35.968-22.514 57.7 0 21.988 7.494 40.634 22.3 55.452l404.736 412.772c-11.42 18.076-19.698 37.888-24.646 59.036-9.9 30.962-11.436 68.922-4.266 111.828 7.282 43.662 24.476 78.606 51.116 103.78l11.364 13.356c36.152 36.196 109.382 56.916 224.556 64.056l31.204 1.92-141.524-163.13c-6.642-7.41-8.576-14.18 1.85-25.628l190.464-194.532c2.816-2.844 7.154-6.316 11.122-6.316s8.292 3.5 11.206 6.414l159.942 140.586-2.162-31.758z" />
<glyph unicode="&#xe608;" d="M625.706 563.84c23.182-23.238 51.37-35 83.74-35 32.298 0 60.472 11.762 83.726 35 23.226 23.196 35 51.372 35 83.74 0 32.298-11.776 60.46-35 83.726-23.254 23.212-51.442 34.986-83.726 34.986-32.326 0-60.516-11.762-83.74-34.986-23.24-23.212-35-51.384-35-83.726 0-32.398 11.762-60.558 35-83.74zM653.14 703.872c15.446 15.43 34.376 23.252 56.306 23.252 21.902 0 40.846-7.808 56.278-23.226 15.432-15.502 23.254-34.446 23.254-56.306 0-21.932-7.822-40.89-23.254-56.292-15.432-15.43-34.376-23.282-56.278-23.282-21.958 0-40.904 7.836-56.334 23.282-15.404 15.374-23.254 34.332-23.254 56.292 0 21.888 7.85 40.804 23.282 56.278zM721.892 338.304c38.328 19.47 70.386 36.908 95.288 51.726 24.348 14.506 43.25 27.72 56.22 39.396 48.554 43.392 84.508 95.972 106.836 156.302 15.9 42.426 27.706 94.35 35.028 154.41 7.38 60.274 10.098 106.226 8.12 136.576-2.162 33.024-2.446 53.946-0.938 65.864-0.91 9.828-5.86 14.776-17.536 15.858-8.064-1.308-28.018-0.81-54.216 1.096-26.226 1.85-70.826-1.55-131.086-10.112-60.884-8.748-118.116-22.642-170.112-41.274-60.060-23.51-114.004-62.82-160.014-116.778-22.386-26.34-61.71-94.932-116.822-203.876-18.176-37.674-31.034-62.748-39.296-76.486l-3.798-6.358h-189.412c-6.058 0-10.908-2.020-15.218-6.372l-120.248-130.476c-4.794-5.618-5.916-11.364-3.412-18.418 2.56-7.324 7.182-11.308 14.99-13.028l198.428-45.952 1.736-1.962c10.268-11.79 32.91-37.034 72.462-80.812l76.616-87.466 40.89-169.67c1.62-6.614 5.418-10.724 12.26-13.298 3.456-1.096 5.19-1.194 5.632-1.194 5.19 0 9.742 1.722 14.322 5.348l119.508 119.624c5.932 5.034 8.376 9.558 8.376 15.218v176.726l5.874 3.91c4.538 2.972 28.842 16.896 72.362 41.372 12.374 6.898 38.286 20.38 77.156 40.106zM532.878 276.65c-2.476-1.934-5.518-5.432-5.518-14.436v-176.838l-89.544-97.452-36.48 148.494c-0.996 3.868-2.446 7.31-4.338 10.168-122.040 135.196-153.244 169.202-157.796 173.852-3.27 4.096-5.874 5.788-9.658 6.556l-173.996 40.036 93.284 98.432h191.658c7.666 0 13.070 3.142 17.492 10.198 9.5 14.962 26.496 46.264 50.546 93.042 54.072 108.16 90.026 172.472 109.882 196.58 42.24 49.294 91.492 84.964 146.446 106.112 91.178 33.152 193.792 49.92 305.18 49.92h12.87l0.256-12.856c2.716-126.478-10.596-230.584-39.652-309.404-19.784-53.688-52.678-100.864-97.678-140.246-11.278-11.308-29.838-24.292-56.306-39.352-25.216-14.322-56.362-30.904-92.486-49.38-34.674-17.636-59.676-30.634-72.206-37.588-66.716-38.372-86.842-51.514-91.962-55.836zM190.194 21.902c-7.708-9.428-22.044-18.148-45.156-27.364-21.888-8.788-52.424-13.24-90.724-13.24h-13.838l0.726 13.824c2.872 53.632 8.902 87.212 18.958 105.756 10.098 18.66 28.844 34.972 55.722 48.398 19.812 9.358 36.736 18.746 50.56 27.948l-23.040 30.308c-11.15-7.126-26.040-15.332-44.388-24.504-36.792-17.778-62.28-40.562-75.876-67.726-13.994-27.976-21.106-79.63-21.106-153.614v-19.556h19.584c54.386 0 97.934 4.338 129.422 12.8 30.164 8.192 51.158 18.318 62.408 30.136 11.99 12.658 23.922 31.432 35.442 55.85 6.854 15.658 12.63 27.776 17.478 36.636l-29.752 26.068c-6.67-10.652-13.724-24.376-21.092-40.974-10.412-19.37-18.588-32.554-25.33-40.746z" />
<glyph unicode="&#xe609;" d="M0 126.506c16.668-2.004 33.338-3 50.006-3 97.664 0 184.662 29.996 261.006 89.998-45.34 0.668-86.002 14.578-121.998 41.756s-60.672 61.924-73.998 104.25c13.994-2.674 27.164-3.996 39.494-3.996 19.002 0 37.332 2.504 54.996 7.496-48.326 9.998-88.504 34.162-120.504 72.504s-48 82.83-48 133.504v2.502c29.996-16.326 61.838-25.002 95.502-25.998-28.672 19-51.412 43.832-68.252 74.496s-25.244 64-25.244 99.996c0 38.002 9.5 73.33 28.502 105.998 52.666-64.668 116.494-116.338 191.502-154.994s155.506-60.16 241.492-64.498c-3.668 16.326-5.504 32.172-5.504 47.502 0 57.998 20.494 107.506 61.498 148.494s90.496 61.482 148.508 61.482c61 0 112.172-22.002 153.5-66.004 47.004 9.33 91.336 26.34 133.006 51.002-16-50.66-46.664-89.5-92.004-116.494 41.33 5.006 81.494 16 120.504 32.996-28.004-42.34-63.004-78.508-105.004-108.5 0.668-12.004 0.996-21.006 0.996-26.994 0-39.666-4.252-79.744-12.744-120.25s-21.332-80.326-38.5-119.496-37.916-76.5-62.25-112-53.332-68.252-86.996-98.246-70.244-56.006-109.754-77.996-83.84-39.168-133.006-51.5-100.75-18.504-154.752-18.504c-116.338-0.014-223.674 31.488-322.004 94.492z" />
<glyph unicode="&#xe60a;" d="M512 960c-282.78 0-512-229.248-512-512.028s229.22-511.972 512-511.972c282.808 0 512 229.192 512 511.972s-229.192 512.028-512 512.028zM749.61 567.636c0.256-5.12 0.326-10.126 0.326-15.288 0-155.876-118.556-335.53-335.532-335.53-66.66 0-128.598 19.5-180.794 52.964 9.188-1.124 18.632-1.62 28.174-1.62 55.212 0 106.084 18.816 146.474 50.49-51.612 0.952-95.204 35.044-110.222 81.876 7.212-1.38 14.62-2.076 22.244-2.076 10.752 0 21.164 1.422 31.020 4.082-53.916 10.88-94.65 58.538-94.65 115.668 0 0.498 0 0.952 0.084 1.466 15.844-8.832 34.092-14.124 53.362-14.706-31.602 21.12-52.452 57.244-52.452 98.118 0 21.632 5.818 41.914 16.028 59.292 58.168-71.338 144.996-118.286 243.044-123.206-2.048 8.62-3.014 17.62-3.014 26.88 0 65.166 52.736 117.916 117.932 117.916 33.862 0 64.582-14.292 86.086-37.204 26.836 5.29 52.11 15.090 74.836 28.63-8.804-27.548-27.476-50.66-51.784-65.252 23.78 2.83 46.52 9.202 67.698 18.588-15.844-23.75-35.784-44.5-58.866-61.084z" />
<glyph unicode="&#xe60b;" d="M149.746 809.756c45.838 45.952 100.338 82.504 163.498 109.626 63.176 27.080 129.422 40.62 198.756 40.62s135.58-13.54 198.756-40.62c63.16-27.122 117.66-63.674 163.5-109.626 45.838-45.996 82.246-100.664 109.254-164.082 26.994-63.388 40.49-129.508 40.49-198.386s-13.496-134.87-40.504-198.044-63.418-117.66-109.254-163.5-100.338-82.246-163.5-109.254-129.408-40.49-198.74-40.49-135.58 13.496-198.756 40.504-117.66 63.418-163.498 109.254-82.246 100.338-109.254 163.5-40.49 129.152-40.49 198.030 13.496 134.998 40.506 198.372c26.994 63.416 63.418 118.086 109.24 164.096zM103.992 290.504c19.668-50.446 47.332-95.446 83.002-134.996 3.67 6.386 8.59 13.996 14.748 22.884 6.172 8.86 16.582 23.196 31.246 42.994 14.664 19.784 31.83 39.366 51.5 58.822 19.668 19.414 41.998 39.708 67.002 60.828s54.172 40.876 87.496 59.336 67.84 33.536 103.496 45.254c6.67 2.332 12.5 4.21 17.494 5.548-9.33 20.494-21.164 44.202-35.5 71.126-50.332-13.952-102.584-25.372-156.742-34.332-54.172-9.002-102.756-15.332-145.748-19.044s-75.164-5.96-96.498-6.798c-13.996-0.412-26.168-0.626-36.494-0.626-5.332 0-9.998 0-13.996 0 0-1.464-0.084-3.54-0.256-6.172-0.172-2.674-0.256-4.536-0.256-5.702 0.014-55.666 9.856-108.7 29.51-159.118zM97.492 536.008c15.004 0 33.336 0.326 54.998 0.996 28.998 0.996 76.914 5.96 143.744 14.876s130.746 21.59 191.744 38.044c-47.332 84.708-101.332 169.414-162.004 254.080-61.668-29.126-113.834-70.826-156.502-125.126-42.668-54.244-71.168-115.214-85.504-182.87 4.040 0 8.534 0 13.526 0zM512 10.496c59.662 0 116.664 11.662 170.994 35-17.664 105.672-48.84 216.164-93.496 331.506-0.326 0-0.84-0.172-1.494-0.498s-1.166-0.498-1.494-0.498c-33.664-11.662-65.75-25.5-96.256-41.5s-56.59-31.744-78.25-47.246-42.168-32.172-61.498-50.004-34.746-33.494-46.25-47.004-22.244-27.336-32.256-41.5-16.668-24.164-19.996-29.996-6.172-11.078-8.504-15.744c78.662-61.682 168.164-92.516 268.5-92.516zM572.5 616.12c35.996 13.37 69.006 28.956 99 46.664s54.172 34.958 72.504 51.668 31.418 29.254 39.254 37.632c7.836 8.334 14.080 15.872 18.746 22.584-39.34 35.086-83.84 62.336-133.504 81.75-49.664 19.37-101.832 29.084-156.5 29.084-34.004 0-68.168-4.166-102.5-12.544 57.67-77.254 112-162.83 163-256.838zM635.506 490.666l9.5-22.172c27.336 3.328 56.164 5.334 86.5 6.002 7.666 0 15.004 0 22.002 0 21.332-0.54 40.334-1.664 57.004-3.328 22.328-2.204 45-4.622 67.996-7.252 22.996-2.674 38.826-4.708 47.502-6.214 8.66-1.464 16.498-2.788 23.496-3.954-0.996 101.66-34.004 191.916-99 270.748-3.328-4.708-7.75-10.34-13.254-16.882s-15.502-16.712-29.996-30.508-30.336-27.206-47.502-40.334c-17.166-13.084-39.41-27.62-66.746-43.576s-56.164-30.164-86.5-42.58c14.322-28.858 23.994-48.826 29-59.948zM756.494 85.504c49.664 33.664 90.924 75.918 123.748 126.748s54.086 106.254 63.744 166.244c-57.004 17.336-117.832 25.998-182.5 25.998-0.996 0-2.162 0-3.5 0-29.668 0-58.496-2.332-86.5-6.996 40.006-110.336 68.352-214.33 85.006-311.994z" />
<glyph unicode="&#xe60c;" d="M625.452 414.634c7.836-23.38 15.288-47.204 21.746-71.666 13.212-50.644 22.372-100.494 28.132-149.034 74.638 48.086 126.678 127.986 136.932 220.716-56.42 4.024-127.516 4.778-186.808-0.014zM562.162 406.016c-13-2.83-24.334-6.002-32.882-9.956-90.538-41.044-162.29-106.938-202.552-186.538 51.228-39.836 115.342-63.788 185.216-63.788 37.746 0 73.714 7.168 106.98 19.84-5.66 48.086-14.834 97.466-27.948 147.612-8.364 31.956-18.12 62.904-28.814 92.828zM511.956 960c-282.752 0-511.956-229.22-511.956-512 0-282.738 229.206-512 511.956-512s512.044 229.262 512.044 512c0 282.78-229.29 512-512.044 512zM511.956 85.304c-200.264 0-362.624 162.332-362.624 362.696 0 200.32 162.36 362.71 362.624 362.71 200.334 0 362.708-162.404 362.708-362.71 0-200.364-162.376-362.694-362.71-362.694zM515.754 447.844c7.496 3.1 16.668 5.774 27.078 8.164-6.542 15.688-13.34 30.976-20.424 45.924-76.046-24.392-164.836-39.14-259.926-40.392-17.664-0.17-35.072 0.1-52.196 0.91-0.212-4.808-0.54-9.586-0.54-14.464 0-76.516 28.716-146.204 75.534-199.48 44.46 85.262 126.38 155.718 230.47 199.34zM606.948 465.594c62.876 5.93 141.056 6.002 206.35 2.502-4.424 66.76-30.422 127.588-71.168 175.502-31.788-46.904-87.51-88.134-160.014-119.41 8.804-18.888 16.966-38.528 24.832-58.596zM495.744 553.77c-35.84 64.682-76.828 120.15-120.504 163.484-76.644-38.996-134.372-109.652-156.046-194.746 15.36-0.896 30.92-1.464 46.692-1.464 83.37 0 161.622 11.974 229.86 32.724zM704.796 680.69c-52.308 43.434-119.452 69.518-192.838 69.518-25.67 0-50.46-3.498-74.34-9.586 43.122-44.102 83.456-100.038 118.586-164.964 64.284 27.308 115.74 63.388 148.594 105.032z" />
<glyph unicode="&#xe60d;" d="M1024 67.314c0-71.964-59.336-131.314-131.314-131.314h-761.358c-72.008 0-131.328 59.35-131.328 131.314v761.358c0 72.006 59.32 131.328 131.328 131.328h761.358c71.98 0 131.314-59.322 131.314-131.328v-761.358zM907.99 526.692h-89.998c8.66-27.348 13.34-57.358 13.34-87.352 0-170.668-142.634-308.678-318.65-308.678-175.346 0-318.024 138.012-318.024 308.678 0 29.996 4.664 60.004 13.34 87.352h-94.010v-432c0-22.698 18.020-40.69 40.69-40.69h712.66c22.642 0 40.634 18.004 40.634 40.69v432zM512.668 649.344c-113.366 0-205.34-89.33-205.34-199.324 0-110.038 91.976-199.366 205.34-199.366 113.99 0 206.010 89.33 206.010 199.366 0 109.996-92.018 199.324-206.010 199.324zM907.99 799.986c0 25.372-20.65 46.038-45.98 46.038h-116.010c-25.316 0-45.98-20.666-45.98-46.038v-109.996c0-25.33 20.664-45.98 45.98-45.98h116.010c25.33 0 45.98 20.664 45.98 45.98v109.996z" />
<glyph unicode="&#xe60e;" d="M671.688 443.662c0-27.99-7.126-53.818-21.348-77.482-14.25-23.708-33.578-42.412-57.998-56.164-24.462-13.796-51.13-20.65-80-20.65-43.79 0-81.224 15.034-112.356 45.156-31.104 30.080-46.664 66.504-46.664 109.156 0 15.104 2.234 29.668 6.67 43.662h-46.976v-216.022c0-5.774 1.92-10.61 5.832-14.45 3.868-3.91 8.704-5.832 14.478-5.832h356.366c5.532 0 10.34 1.92 14.322 5.832 3.996 3.84 6.002 8.66 6.002 14.45v216.020h-44.986c4.394-14.010 6.656-28.572 6.656-43.676zM512.326 349.34c28.43 0 52.708 9.672 72.832 29.17 20.082 19.414 30.164 42.924 30.164 70.486 0 27.548-10.084 51.044-30.164 70.5-20.124 19.428-44.402 29.156-72.832 29.156-28.246 0-52.394-9.728-72.504-29.156-20.124-19.456-30.166-42.966-30.166-70.5 0-27.562 10.040-51.072 30.166-70.486 20.11-19.5 44.26-29.17 72.504-29.17zM687.020 646.97h-58.012c-6.456 0-11.918-2.276-16.326-6.812-4.452-4.55-6.67-9.956-6.67-16.17v-54.996c0-6.458 2.204-11.89 6.67-16.326 4.424-4.438 9.87-6.67 16.326-6.67h58.012c6.414 0 11.86 2.232 16.326 6.67 4.408 4.436 6.656 9.87 6.656 16.326v54.996c0 6.216-2.246 11.606-6.656 16.17-4.466 4.538-9.914 6.812-16.326 6.812zM512 960c-282.796 0-512-229.248-512-512.028s229.206-511.972 512-511.972 512 229.192 512 511.972-229.206 512.028-512 512.028zM768 257.692c0-18.004-6.456-33.466-19.328-46.336-12.914-12.914-28.332-19.37-46.322-19.37h-380.7c-17.976 0-33.436 6.456-46.308 19.37-12.928 12.884-19.342 28.346-19.342 46.336v380.63c0 17.99 6.414 33.452 19.328 46.336 12.87 12.884 28.332 19.3 46.308 19.3h380.7c17.99 0 33.408-6.414 46.322-19.3 12.884-12.9 19.342-28.36 19.342-46.336v-380.63z" />
<glyph unicode="&#xe60f;" d="M511.956 960c-282.71 0-511.956-229.234-511.956-512 0-226.248 146.66-418.162 350.166-485.832 25.586-4.664 34.916 11.078 34.916 24.66 0 12.16-0.412 44.332-0.668 87.082-142.408-30.918-172.502 68.664-172.502 68.664-23.254 59.078-56.832 74.836-56.832 74.836-46.508 31.744 3.54 31.16 3.54 31.16 51.372-3.668 78.422-52.836 78.422-52.836 45.668-78.164 119.836-55.58 149.006-42.496 4.622 33.082 17.878 55.666 32.498 68.424-113.706 13-233.216 56.832-233.216 253.098 0 55.892 19.954 101.604 52.708 137.372-5.29 12.956-22.826 65.024 5.034 135.496 0 0 42.966 13.768 140.742-52.48 40.832 11.348 84.666 17.038 128.214 17.222 43.506-0.184 87.254-5.874 128.172-17.222 97.75 66.248 140.672 52.48 140.672 52.48 27.962-70.486 10.368-122.538 5.12-135.496 32.754-35.77 52.58-81.478 52.58-137.372 0-196.764-119.708-240.014-233.756-252.686 18.376-15.828 34.746-47.090 34.746-94.834 0-68.424-0.626-123.576-0.626-140.416 0-13.754 9.202-29.582 35.214-24.662 203.308 67.826 349.852 259.668 349.852 485.832 0 282.766-229.248 512-512.044 512z" />
<glyph unicode="&#xe610;" d="M357.874 37.548c0-13.78 7.738-17.578 18.446-7.836 13.952 12.686 158.52 142.692 158.52 142.692l-176.966 91.732v-226.588zM1005.724 847.404c-19.13-6.726-964.010-340.296-982.6-346.836-15.802-5.574-19.328-19.228-0.54-26.738 22.272-8.96 211.228-84.792 211.228-84.792h-0.028l125.24-50.246c0 0 603.164 443.648 611.37 449.678 8.206 6.058 17.692-5.276 11.72-11.762-5.988-6.514-438.1-474.596-438.1-474.596v-0.058l-25.216-28.088 33.322-17.934c0 0 258.76-139.548 277.22-149.532 16.228-8.732 37.206-1.452 41.828 18.66 5.562 23.75 158.42 683.562 161.778 698.24 4.41 19.13-8.134 30.764-27.222 24.008z" />
<glyph unicode="&#xe611;" d="M512 960c-282.766 0-512-229.234-512-512s229.234-512 512-512c282.78 0 512 229.234 512 512s-229.22 512-512 512zM402.318 212.024c-5.66-5.148-9.742-3.13-9.742 4.14v119.68l93.468-48.456c0 0-76.358-68.664-83.726-75.364zM749.126 631.226c-1.778-7.75-82.518-356.238-85.448-368.782-2.446-10.624-13.524-14.464-22.1-9.856-9.742 5.276-146.418 78.962-146.418 78.962l-17.594 9.472 13.312 14.848v0.028c0 0 228.224 247.212 231.396 250.652 3.158 3.428-1.85 9.414-6.202 6.214-4.324-3.186-322.888-237.498-322.888-237.498l-66.132 26.538c0 0-99.796 40.050-111.558 44.786-9.926 3.968-8.064 11.178 0.284 14.122 9.812 3.456 508.856 179.628 518.956 183.182 10.084 3.57 16.712-2.574 14.394-12.672z" />
<glyph unicode="&#xe612;" d="M1024 661.418c0-8.89-3.442-16.768-10.268-23.596l-478.136-478.138c-6.842-6.842-14.72-10.268-23.608-10.268s-16.768 3.414-23.594 10.268l-478.138 478.136c-6.842 6.826-10.254 14.692-10.254 23.596 0 8.89 3.412 16.768 10.254 23.608l51.3 51.3c6.826 6.826 14.706 10.254 23.594 10.254s16.754-3.428 23.594-10.254l403.258-403.244 403.228 403.242c6.842 6.826 14.72 10.254 23.596 10.254 8.89 0 16.768-3.428 23.624-10.254l51.284-51.3c6.826-6.842 10.268-14.734 10.268-23.608z" />
<glyph unicode="&#xe613;" d="M512 960c-282.766 0-512-229.234-512-512 0-282.78 229.234-512 512-512s512 229.22 512 512c0 282.766-229.234 512-512 512zM602.312 240.882l-61.824-46.65-174.932 237.924v33.806l174.932 240.27 61.824-48.98-150.456-207.616 150.456-208.754z" />
<glyph unicode="&#xe614;" d="M512-64c282.766 0 512 229.234 512 512 0 282.78-229.234 512-512 512s-512-229.22-512-512c0-282.766 229.234-512 512-512zM421.69 655.118l61.824 46.65 174.948-237.924v-33.82l-174.948-240.242-61.824 48.98 150.456 207.602-150.456 208.754z" />
<glyph unicode="&#xe615;" d="M512 960c-282.78 0-512-229.234-512-512 0-282.78 229.22-512 512-512 282.752 0 512 229.22 512 512 0 282.766-229.248 512-512 512zM769.65 270.15l-75.932-75.932-180.068 180.052-180.052-180.052-75.948 75.932 180.068 180.068-180.068 180.052 75.948 75.948 180.052-180.068 180.068 180.068 75.932-75.948-180.052-180.052 180.052-180.068z" />
<glyph unicode="&#xe616;" d="M512.044 225.422c-15.688 0-28.46-12.572-28.46-28.004 0-15.502 12.786-28.076 28.46-28.076 15.644 0 28.388 12.572 28.388 28.076 0 15.432-12.744 28.004-28.388 28.004zM478.692 687.474v-0.128h68.508c6.812 0.868 12.174 6.684 12.174 13.71 0 7.608-6.286 13.78-14.066 13.78v0.072h-68.394c-6.898-0.812-12.188-6.67-12.188-13.626-0.014-7.638 6.244-13.81 13.966-13.81zM637.696 629.518c0 0.91-0.072 1.75-0.142 2.588-1.11 10.51-9.358 19.058-19.826 20.864-1.366 0.256-2.746 0.326-4.11 0.326-1.436 0-2.816-0.086-4.11-0.326h-194.76c-1.35 0.256-2.716 0.326-4.068 0.326-1.464 0-2.816-0.086-4.154-0.326-11.348-1.948-19.996-11.662-19.996-23.438h-0.044v-362.596h0.044c0-13.156 10.78-23.794 24.134-23.794v-0.072l202.952 0.072c12.388 0 22.642 9.288 23.936 21.134 0.072 0.924 0.142 1.722 0.142 2.66 0 0.782-0.072 1.636-0.142 2.504v357.548c0.072 0.824 0.142 1.678 0.142 2.532zM511.972 960c-282.724 0-511.972-229.248-511.972-512.028 0-282.71 229.248-511.972 511.972-511.972 282.808 0 512.028 229.262 512.028 511.972 0 282.78-229.22 512.028-512.028 512.028zM685.37 190.264c0-24.278-19.924-43.99-44.616-43.99h-257.508c-24.632 0-44.644 19.712-44.644 43.99v515.484c0 24.25 19.996 43.948 44.644 43.948h257.522c24.676 0 44.616-19.698 44.616-43.948v-515.484z" />
<glyph unicode="&#xe617;" d="M257.75 576.568v-257.28l149.362 129.068zM519.652 414.932l216.292 185.956-447.986 0.17 218.012-187.136c1.038-0.626 9.714-1.85 13.682 1.010zM543.404 384.924c-19.356-14.294-43.364-13.866-61.070-1.068l-45.868 39.282-148.224-128.072 447.7-0.142-148.082 128.212-44.458-38.216zM766.264 319.36v257.068l-149.020-128.072zM511.972 960c-282.724 0-511.972-229.22-511.972-512 0-282.71 229.248-512 511.972-512 282.796 0 512.028 229.29 512.028 512 0 282.78-229.234 512-512.028 512zM804.552 310.428c0-13.226-4.892-25.784-13.796-35.726l-2.034-2.276c-10.14-10.14-23.61-15.788-37.932-15.788h-477.626c-14.634 0-28.36 5.86-38.57 16.428l-0.64 0.796c-9.358 10.068-14.578 23.068-14.578 36.566v275.144c0 29.638 24.15 53.788 53.788 53.788h477.596c14.408 0 27.932-5.702 38.158-16l1.85-2.076c8.676-9.358 13.796-22.286 13.796-35.712v-275.144z" />
<glyph unicode="&#xe618;" d="M0 653l149.504 133.006c67.328 58.34 117.83 89.004 151.496 92.004 4.666 0.326 9.33 0.498 13.996 0.498 33.336 0 60.828-12.004 82.502-35.996 24.662-27.334 41.67-70.002 51-128 20.338-127.332 34.004-205.496 41.002-234.496 22.996-104.334 48.326-156.5 76.004-156.5 21.332 0 53.504 33.836 96.498 101.504s66.004 119.168 69.006 154.496c0.668 6.002 0.996 11.832 0.996 17.494 0 47.004-23.34 70.5-70.002 70.5-23.666 0-48.84-5.66-75.506-16.996 48.996 160.326 141.34 240.498 277.006 240.498 3.668 0 7.34 0 10.994 0 99.668-3 149.504-64.342 149.504-184.008 0-6.67-0.172-13.668-0.498-21.006-4.338-99-73.998-235.506-208.996-409.5-138.994-181.006-256.668-271.502-352.996-271.502-60.004 0-110.508 55.168-151.496 165.504l-83.002 303.004c-30.664 110.336-63.502 165.504-98.504 165.504-7.338 0-34.162-16.17-80.498-48.498l-48.014 62.492z" />
<glyph unicode="&#xe619;" d="M194.248 685.498c41.002 13.34 75.506 32 103.496 56.006 28.332 24.334 51.328 53.66 69.006 88.006 17.336 33.992 29.34 77.484 35.996 130.49h150.002v-259h243v-160.498h-243v-262.5c0-59.662 3.172-97.836 9.5-114.504 6.67-16.996 18.332-30.506 35-40.504 22.328-13.34 48.326-19.996 77.996-19.996 51.328 0 102.826 16.84 154.496 50.504v-161.492c-44.332-20.664-83.996-35.172-118.996-43.506-34.66-8.334-72.988-12.5-114.986-12.5-47.204 0-89.416 6.002-126.508 18.004-37.462 12.004-68.794 28.828-93.996 50.504-25.33 22.002-42.994 45.17-53.006 69.504-9.67 23.666-14.508 59.336-14.508 106.994v359.496h-113.492v144.996z" />
<glyph unicode="&#xe61a;" d="M947.186 211.13c-0.668-2.004-1.336-3.996-2.004-6.002s-1.336-3.996-2.004-6.002c-3-9.33-7.34-19.996-13-32-5.66-11.99-11.748-24.236-18.246-36.736-6.5-12.486-13.17-24.49-19.996-35.982s-13.24-21.248-19.244-29.254c-11.336-16-22.756-31.502-34.246-46.506s-23.836-28.316-36.992-39.98c-13.156-11.662-27.322-21.248-42.482-28.744s-31.914-11.42-50.232-11.748c-12.004-0.326-22.756 0.498-32.256 2.504s-18.504 4.494-26.994 7.496-16.74 6.328-24.732 9.984c-7.994 3.684-16.582 7.082-25.756 10.254-9.174 3.186-19.086 5.746-29.754 7.75s-22.812 3-36.48 3c-20.664 0-38.244-2.076-52.75-6.244-14.492-4.168-28.074-8.818-40.732-13.996-12.672-5.148-25.33-10.068-38.002-14.734-12.658-4.664-27.648-7.34-44.986-7.994-17.336-0.996-33.75 2.332-49.238 9.998-15.502 7.666-30.25 17.736-44.246 30.236s-27.164 26.652-39.48 42.482c-12.33 15.828-24.164 31.588-35.498 47.246-5.66 7.994-12.004 17.75-19.002 29.254s-13.838 23.41-20.494 35.74c-6.656 12.316-12.814 24.32-18.49 35.982s-9.998 21.66-12.998 29.996c-3.002 7.994-6.244 17.494-9.756 28.5s-6.826 22.414-9.998 34.246c-3.172 11.818-6.002 23.41-8.504 34.73-2.504 11.322-4.252 21.164-5.248 29.496-1.338 7.994-2.504 17.99-3.498 29.98s-1.748 24.25-2.246 36.75-0.754 24.32-0.754 35.5c0 11.164 0.326 20.068 0.996 26.738 0.996 9.998 3.002 21.248 6.002 33.75 3.002 12.488 6.5 24.988 10.496 37.49s8.248 24.164 12.742 35c4.494 10.824 8.746 19.74 12.742 26.738 12.004 19.668 25.998 37.318 41.984 53.006 16 15.658 33.492 29.070 52.494 40.236 18.986 11.164 39.154 19.826 60.486 25.998 21.334 6.172 43.492 9.414 66.488 9.756 17.336 0.312 34.332-1.836 50.988-6.5 16.668-4.678 32.498-9.756 47.502-15.246s29.17-10.582 42.482-15.246c13.34-4.664 25.33-6.996 35.996-6.996s23.168 2.418 37.49 7.254c14.336 4.836 29.838 10.084 46.506 15.744s34.162 10.924 52.48 15.744c18.332 4.822 36.664 7.254 54.996 7.254h18.49c18.332-0.682 36.494-3.428 54.5-8.25 18.004-4.836 35.158-11.576 51.484-20.252s31.674-19.086 45.98-31.246c14.336-12.16 27.164-26.068 38.5-41.742-3-2.004-6.5-4.424-10.496-7.252s-7.836-5.746-11.506-8.748-7.168-5.916-10.496-8.748-5.832-5.076-7.48-6.756c-6.328-6.67-13.34-14.664-21.006-23.994s-14.918-19.684-21.746-31.004c-6.826-11.336-12.914-23.41-18.246-36.252-5.332-12.814-8.832-26.070-10.496-39.738-1.336-10.324-1.92-21.064-1.75-32.242 0.172-11.178 1.082-22.328 2.746-33.494s3.91-21.916 6.756-32.256 6.244-19.668 10.254-28.004c5.006-9.984 11.832-20.992 20.494-32.98 8.66-11.99 18.504-23.566 29.496-34.73 10.98-11.178 22.656-21.164 34.986-29.996s24.662-14.918 37.006-18.246zM722.204 960c2.332-15.004 2.674-30.080 0.996-45.254s-4.922-29.824-9.742-43.99c-4.836-14.164-10.836-27.748-18.004-40.746s-15.090-24.988-23.75-35.982c-9.004-11.336-19.5-22.002-31.502-32-11.99-9.998-24.732-18.504-38.23-25.5-13.496-6.984-27.576-12.416-42.254-16.242-14.65-3.84-29.482-5.59-44.486-5.248-2.674 14.664-3 29.396-0.996 44.23s5.504 29.254 10.496 43.25c5.006 13.98 11.164 27.236 18.504 39.736s14.99 23.752 22.982 33.75c9.672 10.994 20.58 21.318 32.754 30.99s25.174 18.246 38.982 25.756c13.838 7.496 27.918 13.668 42.254 18.504 14.35 4.822 28.346 7.75 41.998 8.746z" />
<glyph unicode="&#xe61b;" d="M512 952.32c-271.462 0-491.52-220.058-491.52-491.52s220.058-491.52 491.52-491.52 491.52 220.058 491.52 491.52-220.058 491.52-491.52 491.52zM628.378 612.659h-73.882c-8.704 0-18.432-11.52-18.432-26.829v-53.35h92.365v-76.083h-92.365v-228.403h-87.245v228.403h-79.053v76.032h79.053v44.749c0 64.205 44.544 116.378 105.677 116.378h73.882v-80.896z" />
<glyph unicode="&#xe61c;" d="M465.766 599.808c-12.339 43.52-32.307 56.371-63.386 56.371-3.328 0-6.707-0.461-9.933-1.331-13.517-3.84-24.166-15.104-30.106-31.744-6.093-16.896-6.502-34.56-1.178-54.63 9.421-35.84 34.918-61.901 60.672-61.901 3.328 0 6.707 0.461 9.933 1.331 28.006 7.936 45.619 50.842 33.997 91.904zM512 952.32c-271.462 0-491.52-220.058-491.52-491.52s220.058-491.52 491.52-491.52c271.514 0 491.52 220.058 491.52 491.52s-220.006 491.52-491.52 491.52zM483.686 249.754c-30.925-15.002-64.154-16.589-77.005-16.589-2.458 0-3.84 0.051-4.045 0.051 0 0-0.973 0-2.509 0-20.070 0-119.962 4.608-119.962 95.59 0 89.395 108.749 96.358 142.080 96.358h0.922c-19.2 25.702-15.206 51.61-15.206 51.61-1.69-0.102-4.198-0.205-7.219-0.205-12.595 0-36.813 1.997-57.6 15.462-25.446 16.333-38.349 44.237-38.349 82.893 0 109.107 119.091 113.51 120.32 113.562h118.938v-2.611c0-13.312-23.859-15.872-40.192-18.125-5.53-0.768-16.589-1.894-19.763-3.482 30.157-16.077 35.021-41.421 35.021-79.104 0-42.854-16.794-65.536-34.611-81.51-11.008-9.83-19.712-17.664-19.712-28.006 0-10.138 11.878-20.582 25.702-32.717 22.579-19.866 53.555-47.053 53.555-92.723 0-47.206-20.326-80.998-60.365-100.454zM743.782 461.261h-77.619v-77.619h-49.152v77.619h-77.619v49.152h77.619v77.568h49.152v-77.619h77.619v-49.101zM421.018 401.869c-2.662 0-5.325-0.102-7.987-0.307-22.733-1.638-43.725-10.189-58.931-24.013-15.053-13.619-22.682-30.771-21.606-48.179 2.253-36.352 41.37-57.702 88.781-54.272 46.746 3.379 77.875 30.259 75.571 66.662-2.202 34.253-31.949 60.109-75.827 60.109z" />
</font>
</defs>
</svg>
