<?xml version="1.0" standalone="no"?>
<!DOCTYPE svg PUBLIC "-//W3C//DTD SVG 1.1//EN" "http://www.w3.org/Graphics/SVG/1.1/DTD/svg11.dtd" >
<svg xmlns="http://www.w3.org/2000/svg">
<metadata>Generated by IcoMoon</metadata>
<defs>
<font id="brddg-icons" horiz-adv-x="1024">
<font-face units-per-em="1024" ascent="960" descent="-64" />
<missing-glyph horiz-adv-x="1024" />
<glyph unicode="&#x20;" horiz-adv-x="512" d="" />
<glyph unicode="&#xe900;" glyph-name="about" d="M960 848h-896c-35.2 0-64-28.8-64-64v-672c0-35.2 28.8-64 64-64h896c35.2 0 64 28.8 64 64v672c0 35.2-28.8 64-64 64zM992 112c0-17.6-14.4-32-32-32h-896c-17.6 0-32 14.4-32 32v672c0 17.6 14.4 32 32 32h896c17.6 0 32-14.4 32-32v-672zM323.2 680c-128 0-232-104-232-232s104-232 232-232 233.6 104 233.6 232c-1.6 128-104 232-233.6 232zM323.2 248c-48 0-91.2 16-124.8 44.8 12.8 20.8 30.4 40 49.6 52.8 20.8-16 46.4-24 75.2-24s54.4 9.6 75.2 24c19.2-12.8 36.8-30.4 49.6-52.8-33.6-28.8-76.8-44.8-124.8-44.8zM227.2 448c0 52.8 43.2 96 96 96s96-43.2 96-96-43.2-96-96-96-96 43.2-96 96zM472 313.6c-12.8 20.8-30.4 38.4-49.6 52.8 17.6 22.4 28.8 49.6 28.8 81.6 0 70.4-57.6 128-128 128s-128-57.6-128-128c0-30.4 11.2-59.2 28.8-81.6-19.2-14.4-35.2-32-49.6-52.8-32 35.2-51.2 81.6-51.2 134.4 0 110.4 89.6 200 200 200s201.6-89.6 201.6-200c0-51.2-20.8-97.6-52.8-134.4zM611.2 464h288v-30.4h-288v30.4zM611.2 560h288v-30.4h-288v30.4zM611.2 366.4h288v-30.4h-288v30.4z" />
<glyph unicode="&#xe901;" glyph-name="blog" d="M540.8 713.28l236.48-236.64-435.84-436-225.6-23.36c-19.087 0-34.56 15.473-34.56 34.56l23.68 225.28 435.84 436.16zM540.8 751.52l-455.040-455.2-7.84-8.32v-9.76l-23.52-224v-2.88c0.090-33.928 27.525-61.419 61.423-61.6h2.737l235.2 24.32 6.72 6.72 436 436.8 19.52 19.040-19.52 19.36-236.48 236.48-19.2 19.52zM730.4 878.72c0.030 0 0.067 0 0.103 0 16.092 0 30.656-6.545 41.175-17.118l154.082-154.082c10.55-10.541 17.076-25.108 17.076-41.2s-6.526-30.659-17.076-41.2l-129.28-129.12-236.48 236.48 129.12 129.12c10.521 10.575 25.085 17.12 41.177 17.12 0.036 0 0.072 0 0.108 0zM730.4 905.76v0c-23.671-0.159-45.015-9.993-60.3-25.739l-129.3-128.021-19.2-19.2 19.040-19.2 255.84-256 19.52 19.2 128 129.12c15.405 15.452 24.93 36.774 24.93 60.32s-9.525 44.868-24.932 60.322l-153.278 153.438c-15.358 15.419-36.607 24.96-60.085 24.96-0.082 0-0.165 0-0.247 0h0.013zM589.535 761.744l19.124 19.117 236.415-236.498-19.124-19.117-236.415 236.498zM69.248 125.234l19.124 19.117 120.357-120.399-19.124-19.117-120.357 120.399zM336 26.72c-7.018 0.053-12.768 5.414-13.436 12.264l-8.484 93.176-106.080 11.84-11.84 106.24-93.12 8.48c-6.167 1.377-10.708 6.803-10.708 13.289 0 7.338 5.812 13.319 13.083 13.59l115.225-10.559 11.84-106.72 106.72-11.84 10.4-115.040c0.032-0.352 0.051-0.762 0.051-1.176 0-7.078-5.408-12.894-12.317-13.54l-1.334-0.004zM312.446 148.752l342.919 342.919 19.12-19.12-342.919-342.919-19.12 19.12zM193.963 267.152l342.919 342.919 19.12-19.12-342.919-342.919-19.12 19.12zM81.28 133.28l107.84-114.56-76.8-17.44-40 27.36 3.2 103.040 5.76 1.6z" />
<glyph unicode="&#xe902;" glyph-name="contact" d="M992 816v-736h-960v736h960zM1024 848h-1024v-800h1024v800zM41.361 770.837l67.882 67.882 22.627-22.627-67.882-67.882-22.627 22.627zM162.526 770.722l67.882 67.882 22.627-22.627-67.882-67.882-22.627 22.627zM283.804 770.72l67.882 67.882 22.627-22.627-67.882-67.882-22.627 22.627zM405.082 770.878l67.882 67.882 22.627-22.627-67.882-67.882-22.627 22.627zM526.36 770.876l67.882 67.882 22.627-22.627-67.882-67.882-22.627 22.627zM647.524 770.76l67.882 67.882 22.627-22.627-67.882-67.882-22.627 22.627zM768.802 770.758l67.882 67.882 22.627-22.627-67.882-67.882-22.627 22.627zM890.080 770.756l67.882 67.882 22.627-22.627-67.882-67.882-22.627 22.627zM41.567 79.911l67.882 67.882 22.627-22.627-67.882-67.882-22.627 22.627zM162.572 79.956l67.882 67.882 22.627-22.627-67.882-67.882-22.627 22.627zM283.85 79.954l67.882 67.882 22.627-22.627-67.882-67.882-22.627 22.627zM405.128 79.952l67.882 67.882 22.627-22.627-67.882-67.882-22.627 22.627zM526.406 79.95l67.882 67.882 22.627-22.627-67.882-67.882-22.627 22.627zM647.57 79.835l67.882 67.882 22.627-22.627-67.882-67.882-22.627 22.627zM768.848 79.992l67.882 67.882 22.627-22.627-67.882-67.882-22.627 22.627zM890.126 79.99l67.882 67.882 22.627-22.627-67.882-67.882-22.627 22.627zM144 512h192v-32h-192v32zM144 416h384v-32h-384v32zM144 336h384v-32h-384v32zM896 608v-128h-96v128h96zM928 640h-160v-192h160v192z" />
<glyph unicode="&#xe903;" glyph-name="work" d="M992 880v-864h-960v864h960zM1024 912h-1024v-928h1024v928zM0 912h1024v-32h-1024v32zM0 736h1024v-32h-1024v32zM120 832c-13.255 0-24-10.745-24-24s10.745-24 24-24c13.255 0 24 10.745 24 24s-10.745 24-24 24v0zM184 832c-13.255 0-24-10.745-24-24s10.745-24 24-24c13.255 0 24 10.745 24 24s-10.745 24-24 24v0zM248 832c-13.255 0-24-10.745-24-24s10.745-24 24-24c13.255 0 24 10.745 24 24s-10.745 24-24 24v0zM912 608v-496h-800v496h800zM944 640h-864v-560h864v560zM224 576h656v-32h-656v32zM144 576h32v-32h-32v32zM144 480h32v-32h-32v32zM144 384h32v-32h-32v32zM144 288h32v-32h-32v32zM144 192h32v-32h-32v32zM496 384h192v-32h-192v32zM368 384h96v-32h-96v32zM224 384h112v-32h-112v32zM224 480h96v-32h-96v32zM720 384h96v-32h-96v32zM352 480h96v-32h-96v32zM480 480h240v-32h-240v32zM224 192h192v-32h-192v32zM448 192h96v-32h-96v32zM752 192h112v-32h-112v32zM576 192h64v-32h-64v32zM672 192h48v-32h-48v32zM224 288h272v-32h-272v32zM528 288h176v-32h-176v32zM736 288h144v-32h-144v32z" />
<glyph unicode="&#xe904;" glyph-name="brddg" horiz-adv-x="1005" d="M499.2 224c6.4 12.8 25.6 19.2 38.4 19.2 108.8 0 211.2-12.8 288 12.8 70.4 25.6 160 76.8 185.6 307.2 0 25.6-19.2 51.2-44.8 51.2-83.2 0-172.8 12.8-249.6 25.6-6.4 0-19.2 6.4-25.6 12.8-83.2 76.8-147.2 140.8-326.4 153.6-12.8 0-25.6 12.8-38.4 25.6-38.4 57.6-128 102.4-179.2 128-25.6 12.8-57.6-6.4-64-32-12.8-76.8-12.8-185.6 44.8-281.6 6.4-6.4 6.4-19.2 6.4-32l-51.2-294.4c0 0 0-6.4 0-6.4-6.4-12.8-25.6-64-76.8-134.4-12.8-19.2-12.8-38.4 6.4-57.6 108.8-115.2 256-185.6 422.4-185.6 19.2 0 38.4 0 57.6 0-12.8 51.2-25.6 96-38.4 134.4 6.4 6.4 0 96 44.8 153.6z" />
<glyph unicode="&#xe905;" glyph-name="appleinc" d="M791.488 415.936c-1.28 129.664 105.728 191.872 110.528 194.944-60.16 88-153.856 100.096-187.264 101.44-79.744 8.064-155.584-46.976-196.096-46.976-40.384 0-102.848 45.76-168.96 44.544-86.912-1.28-167.040-50.56-211.84-128.384-90.304-156.672-23.104-388.864 64.896-515.904 43.008-62.208 94.272-132.096 161.6-129.6 64.832 2.56 89.344 41.984 167.744 41.984s100.416-41.984 169.024-40.64c69.76 1.28 113.984 63.424 156.672 125.824 49.408 72.192 69.696 142.016 70.912 145.6-1.536 0.704-136.064 52.224-137.408 207.104zM662.592 796.48c35.712 43.328 59.84 103.488 53.248 163.52-51.456-2.112-113.856-34.304-150.784-77.568-33.152-38.4-62.144-99.648-54.4-158.464 57.472-4.48 116.16 29.184 151.872 72.448z" />
<glyph unicode="&#xe906;" glyph-name="cancel-circle" d="M512 960c-282.752 0-512-229.248-512-512s229.248-512 512-512 512 229.248 512 512-229.248 512-512 512zM512 32c-229.76 0-416 186.24-416 416s186.24 416 416 416 416-186.24 416-416-186.24-416-416-416zM672 704l-160-160-160 160-96-96 160-160-160-160 96-96 160 160 160-160 96 96-160 160 160 160z" />
<glyph unicode="&#xe907;" glyph-name="checkmark" d="M864 832l-480-480-224 224-160-160 384-384 640 640z" />
<glyph unicode="&#xe908;" glyph-name="circle-down" d="M1024 448c0 282.752-229.248 512-512 512s-512-229.248-512-512 229.248-512 512-512 512 229.248 512 512zM96 448c0 229.76 186.24 416 416 416s416-186.24 416-416-186.24-416-416-416-416 186.24-416 416zM317.248 605.248l-90.496-90.496 285.248-285.248 285.248 285.248-90.496 90.496-194.752-194.752z" />
<glyph unicode="&#xe909;" glyph-name="circle-left" d="M512-64c282.752 0 512 229.248 512 512s-229.248 512-512 512-512-229.248-512-512 229.248-512 512-512zM512 864c229.76 0 416-186.24 416-416s-186.24-416-416-416-416 186.24-416 416 186.24 416 416 416zM669.248 642.752l-90.496 90.496-285.248-285.248 285.248-285.248 90.496 90.496-194.752 194.752z" />
<glyph unicode="&#xe90a;" glyph-name="circle-right" d="M512 960c-282.752 0-512-229.248-512-512s229.248-512 512-512 512 229.248 512 512-229.248 512-512 512zM512 32c-229.76 0-416 186.24-416 416s186.24 416 416 416 416-186.24 416-416-186.24-416-416-416zM354.752 253.248l90.496-90.496 285.248 285.248-285.248 285.248-90.496-90.496 194.752-194.752z" />
<glyph unicode="&#xe90b;" glyph-name="circle-up" d="M0 448c0-282.752 229.248-512 512-512s512 229.248 512 512-229.248 512-512 512-512-229.248-512-512zM928 448c0-229.76-186.24-416-416-416s-416 186.24-416 416 186.24 416 416 416 416-186.24 416-416zM706.752 290.752l90.496 90.496-285.248 285.248-285.248-285.248 90.496-90.496 194.752 194.752z" />
<glyph unicode="&#xe90c;" glyph-name="cross" d="M1014.656 137.344c0 0 0 0 0 0l-310.656 310.656 310.656 310.656c0 0 0 0 0 0 3.328 3.328 5.76 7.232 7.296 11.392 4.224 11.392 1.792 24.704-7.296 33.856l-146.752 146.752c-9.152 9.152-22.464 11.584-33.856 7.296-4.16-1.536-8.064-3.968-11.392-7.296 0 0 0 0 0 0l-310.656-310.656-310.656 310.656c0 0 0 0 0 0-3.328 3.328-7.232 5.76-11.392 7.296-11.392 4.224-24.704 1.856-33.856-7.296l-146.752-146.752c-9.152-9.152-11.584-22.464-7.296-33.856 1.536-4.16 3.968-8.064 7.296-11.392 0 0 0 0 0 0l310.656-310.656-310.656-310.656c0 0 0 0 0 0-3.328-3.328-5.76-7.232-7.296-11.392-4.224-11.392-1.856-24.704 7.296-33.856l146.752-146.752c9.152-9.152 22.464-11.584 33.856-7.296 4.16 1.536 8.064 3.968 11.392 7.296 0 0 0 0 0 0l310.656 310.656 310.656-310.656c0 0 0 0 0 0 3.328-3.328 7.232-5.76 11.392-7.296 11.392-4.224 24.704-1.856 33.856 7.296l146.752 146.752c9.152 9.152 11.584 22.464 7.296 33.856-1.536 4.16-3.968 8.064-7.296 11.392z" />
<glyph unicode="&#xe90d;" glyph-name="dribbble" d="M512-64c-282.368 0-512 229.632-512 512s229.568 512 512 512c282.368 0 512-229.568 512-512s-229.632-512-512-512v0zM943.808 377.984c-14.976 4.8-135.424 40.576-272.384 18.624 57.216-157.184 80.384-285.184 84.992-311.808 97.984 66.368 168 171.392 187.392 293.184v0zM682.816 44.8c-6.592 38.4-31.808 172.032-93.184 331.584-1.024-0.384-1.984-0.576-2.816-1.024-246.784-86.016-335.424-257.024-343.168-273.024 74.176-57.792 167.424-92.416 268.416-92.416 60.608 0 118.4 12.416 170.816 34.816v0zM187.008 155.008c9.984 17.024 129.984 215.616 355.392 288.576 5.632 1.792 11.392 3.584 17.216 5.184-11.008 24.832-22.976 49.792-35.392 74.176-218.176-65.408-430.208-62.592-449.408-62.4-0.192-4.416-0.192-8.832-0.192-13.376 0-112.192 42.624-214.784 112.384-292.224v0zM84.032 537.024c19.584-0.192 199.808-1.024 404.416 53.184-72.384 128.832-150.592 237.184-162.176 252.992-122.432-57.792-214.016-170.624-242.176-306.176v0zM409.6 872.576c12.032-16.192 91.584-124.416 163.2-256 155.584 58.176 221.376 146.816 229.184 158.016-77.184 68.608-178.816 110.208-289.984 110.208-35.2-0.192-69.632-4.416-102.4-12.224v0zM850.624 723.776c-9.216-12.416-82.624-106.432-244.224-172.416 10.176-20.8 20.032-41.984 28.992-63.424 3.2-7.616 6.4-14.976 9.408-22.592 145.6 18.176 290.176-11.008 304.576-14.016-1.024 103.168-38.016 198.016-98.816 272.384v0z" />
<glyph unicode="&#xe90e;" glyph-name="github" d="M512 947.328c-282.752 0-512-229.248-512-512 0-226.24 146.688-418.112 350.144-485.824 25.6-4.736 35.008 11.136 35.008 24.64 0 12.224-0.512 52.544-0.704 95.296-142.464-30.976-172.48 60.416-172.48 60.416-23.296 59.2-56.832 74.944-56.832 74.944-46.464 31.808 3.52 31.104 3.52 31.104 51.392-3.584 78.464-52.736 78.464-52.736 45.696-78.272 119.808-55.616 148.992-42.56 4.608 33.088 17.856 55.68 32.512 68.48-113.728 12.928-233.28 56.832-233.28 253.056 0 55.872 20.032 101.568 52.736 137.408-5.312 12.928-22.848 64.96 4.928 135.488 0 0 43.008 13.76 140.864-52.48 40.832 11.328 84.608 17.024 128.128 17.216 43.52-0.192 87.36-5.888 128.256-17.216 97.728 66.24 140.672 52.48 140.672 52.48 27.84-70.528 10.368-122.624 5.056-135.488 32.832-35.84 52.672-81.536 52.672-137.408 0-196.672-119.808-239.936-233.792-252.608 18.368-15.872 34.752-47.040 34.752-94.784 0-68.48-0.576-123.648-0.576-140.48 0-13.632 9.216-29.568 35.2-24.576 203.328 67.776 349.824 259.648 349.824 485.76 0 282.752-229.248 512-512 512z" />
<glyph unicode="&#xe90f;" glyph-name="instagram" d="M928 960h-832c-52.8 0-96-43.2-96-96v-832c0-52.8 43.2-96 96-96h832c52.8 0 96 43.2 96 96v832c0 52.8-43.2 96-96 96zM704 800c0 17.6 14.4 32 32 32h128c17.6 0 32-14.4 32-32v-128c0-17.6-14.4-32-32-32h-128c-17.6 0-32 14.4-32 32v128zM512 640c105.984 0 192-86.016 192-192s-86.016-192-192-192c-105.984 0-192 86.016-192 192s86.016 192 192 192zM896 96v0c0-17.6-14.4-32-32-32h-704c-17.6 0-32 14.4-32 32v0 416h70.4c-4.224-20.608-6.4-41.984-6.4-64 0-176.768 143.168-320 320-320s320 143.232 320 320c0 22.016-2.176 43.392-6.4 64h70.4v-416z" />
<glyph unicode="&#xe910;" glyph-name="medium" d="M1024 723.2v0 0l-307.2 153.6c0 0-6.4 0-6.4 0s-6.4 0-6.4 0c-12.8 0-25.6-6.4-32-12.8l-185.6-288 224-364.8 313.6 512c0-6.4 0 0 0 0zM390.4 640v-326.4l294.4-147.2zM729.6 147.2l243.2-121.6c32-12.8 57.6-6.4 57.6 25.6v576l-300.8-480zM339.2 723.2l-300.8 147.2c-6.4 0-12.8 6.4-12.8 6.4-12.8 0-25.6-6.4-25.6-25.6v-652.8c0-19.2 12.8-38.4 25.6-44.8l268.8-134.4c6.4 0 12.8-6.4 19.2-6.4 19.2 0 25.6 12.8 25.6 32v678.4c0 0 0 0 0 0z" />
<glyph unicode="&#xe911;" glyph-name="pausecircle" d="M512 960c-282.752 0-512-229.248-512-512s229.248-512 512-512 512 229.248 512 512-229.248 512-512 512zM512 32c-229.76 0-416 186.24-416 416s186.24 416 416 416 416-186.24 416-416-186.24-416-416-416zM320 640h128v-384h-128zM576 640h128v-384h-128z" />
<glyph unicode="&#xe912;" glyph-name="pause" d="M128 832h320v-768h-320zM576 832h320v-768h-320z" />
<glyph unicode="&#xe913;" glyph-name="playcircle" d="M512 960c-282.752 0-512-229.248-512-512s229.248-512 512-512 512 229.248 512 512-229.248 512-512 512zM512 32c-229.76 0-416 186.24-416 416s186.24 416 416 416 416-186.24 416-416-186.24-416-416-416zM384 672l384-224-384-224z" />
<glyph unicode="&#xe914;" glyph-name="play" d="M192 832l640-384-640-384z" />
<glyph unicode="&#xe915;" glyph-name="stopcircle" d="M512 960c-282.752 0-512-229.248-512-512s229.248-512 512-512 512 229.248 512 512-229.248 512-512 512zM512 32c-229.76 0-416 186.24-416 416s186.24 416 416 416 416-186.24 416-416-186.24-416-416-416zM320 640h384v-384h-384z" />
<glyph unicode="&#xe916;" glyph-name="stop" d="M128 832h768v-768h-768z" />
<glyph unicode="&#xe917;" glyph-name="twitter" d="M1024 733.568c-37.632-16.832-78.208-28.032-120.576-33.024 43.392 25.984 76.608 67.2 92.416 116.224-40.576-24-85.632-41.6-133.376-51.008-38.4 40.832-92.992 66.176-153.408 66.176-116.032 0-209.984-94.016-209.984-209.984 0-16.384 1.792-32.384 5.376-47.808-174.592 8.832-329.408 92.416-433.024 219.584-17.984-30.976-28.416-67.2-28.416-105.6 0-72.832 36.992-137.216 93.376-174.784-34.432 1.024-66.816 10.624-95.232 26.176 0-0.832 0-1.792 0-2.624 0-101.824 72.384-186.816 168.576-206.016-17.6-4.8-36.224-7.424-55.424-7.424-13.568 0-26.624 1.408-39.616 3.776 26.816-83.392 104.384-144.192 196.224-145.984-72-56.384-162.432-89.984-260.992-89.984-17.024 0-33.6 1.024-50.176 3.008 93.184-59.776 203.584-94.4 322.176-94.4 386.368 0 597.824 320.192 597.824 597.824 0 9.216-0.192 18.176-0.576 27.2 41.024 29.376 76.608 66.432 104.768 108.608z" />
<glyph unicode="&#xe918;" glyph-name="vimeo" d="M1023.616 686.016c-4.608-99.584-74.176-236.224-208.832-409.408-139.2-180.8-257.024-271.424-353.408-271.424-59.584 0-110.208 54.976-151.424 165.184-27.584 100.992-54.976 201.984-82.624 302.976-30.592 110.208-63.424 165.184-98.624 165.184-7.616 0-34.432-16.192-80.384-48.192l-48.192 62.016c50.624 44.416 100.416 88.832 149.376 133.184 67.392 58.176 118.016 88.768 151.808 92.032 79.616 7.616 128.832-46.784 147.2-163.392 19.776-125.824 33.6-204.032 41.408-234.624 22.976-104.384 48.192-156.608 75.776-156.608 21.376 0 53.632 33.792 96.576 101.632 42.816 67.584 65.792 119.168 68.992 154.624 6.208 58.368-16.768 87.808-68.992 87.808-24.576 0-49.792-5.632-75.776-16.832 50.368 164.8 146.368 244.8 288.384 240.192 105.024-2.816 154.624-70.976 148.608-204.416z" />
<glyph unicode="&#xe919;" glyph-name="video" d="M960 816c17.673 0 32-14.327 32-32v-672c0-17.673-14.327-32-32-32h-896c-17.673 0-32 14.327-32 32v672c0 17.673 14.327 32 32 32h896zM960 848h-896c-35.346 0-64-28.654-64-64v-672c0-35.346 28.654-64 64-64h896c35.346 0 64 28.654 64 64v672c0 35.346-28.654 64-64 64v0zM512 648c110.457 0 200-89.543 200-200s-89.543-200-200-200c-110.457 0-200 89.543-200 200s89.543 200 200 200zM512 680c-128.13 0-232-103.87-232-232s103.87-232 232-232c128.13 0 232 103.87 232 232-0.182 128.057-103.943 231.818-231.983 232h-0.017zM460.16 531.2c0.384 0.097 0.826 0.153 1.28 0.153s0.896-0.056 1.317-0.161l142.363-79.032c1.444-0.461 2.471-1.791 2.471-3.36s-1.027-2.899-2.446-3.353l-142.425-79.047c-0.384-0.097-0.826-0.153-1.28-0.153s-0.896 0.056-1.317 0.161c-1.879 0.133-3.38 1.723-3.38 3.663 0 0.23 0.021 0.454 0.061 0.672l-0.003 156.137c-0.037 0.195-0.058 0.42-0.058 0.649 0 1.94 1.501 3.53 3.406 3.67zM460.16 563.2v0c-19.552-0.086-35.369-15.956-35.369-35.52 0-0.281 0.003-0.562 0.010-0.842l-0.001-157.718c-0.006-0.238-0.009-0.519-0.009-0.8 0-19.564 15.817-35.434 35.361-35.52 6.586 0.032 12.757 1.747 18.119 4.738l142.369 79.902c11.393 6.026 19.024 17.802 19.024 31.36s-7.631 25.334-18.832 31.267l-142.592 78.333c-5.207 2.965-11.43 4.737-18.061 4.8h-0.019z" />
</font>
</defs>
</svg>
